<svg xmlns="http://www.w3.org/2000/svg" xmlns:xlink="http://www.w3.org/1999/xlink" viewBox="0 0 50 49.815">
  <defs>
    <style>
      .cls-1 {
        fill: #ffb125;
      }

      .cls-2 {
        fill: #ff901d;
      }

      .cls-3 {
        fill: #fff;
      }

      .cls-4 {
        fill: #f5f5f5;
      }

      .cls-5 {
        fill: #ff4c4c;
        stroke: #fff;
      }

      .cls-6 {
        filter: url(#Path_294);
      }
    </style>
    <filter id="Path_294" x="9.785" y="9.544" width="30.423" height="29.312" filterUnits="userSpaceOnUse">
      <feOffset input="SourceAlpha"/>
      <feGaussianBlur stdDeviation="1" result="blur"/>
      <feFlood flood-opacity="0.122"/>
      <feComposite operator="in" in2="blur"/>
      <feComposite in="SourceGraphic"/>
    </filter>
  </defs>
  <g id="Group_360" data-name="Group 360" transform="translate(-1013.168 -334)">
    <path id="Path_291" data-name="Path 291" class="cls-1" d="M91.8,1.084h0a3.32,3.32,0,0,0,3.933.735h0a3.32,3.32,0,0,1,4.575,1.772h0a3.32,3.32,0,0,0,3.4,2.106h0A3.32,3.32,0,0,1,107.333,9h0a3.32,3.32,0,0,0,2.411,3.193h0a3.32,3.32,0,0,1,2.187,4.392h0a3.32,3.32,0,0,0,1.095,3.848h0a3.32,3.32,0,0,1,.453,4.885h0a3.32,3.32,0,0,0-.369,3.984h0a3.32,3.32,0,0,1-1.343,4.719h0a3.32,3.32,0,0,0-1.783,3.581h0a3.32,3.32,0,0,1-2.957,3.915h0a3.32,3.32,0,0,0-2.957,2.7h0A3.32,3.32,0,0,1,99.9,46.8h0a3.32,3.32,0,0,0-3.731,1.445h0a3.32,3.32,0,0,1-4.823.9h0a3.32,3.32,0,0,0-4,0h0a3.32,3.32,0,0,1-4.823-.9h0A3.32,3.32,0,0,0,78.791,46.8h0a3.32,3.32,0,0,1-4.172-2.583h0a3.32,3.32,0,0,0-2.957-2.7h0a3.32,3.32,0,0,1-2.957-3.915h0a3.32,3.32,0,0,0-1.783-3.581h0A3.32,3.32,0,0,1,65.58,29.3h0a3.32,3.32,0,0,0-.369-3.984h0a3.32,3.32,0,0,1,.453-4.885h0a3.32,3.32,0,0,0,1.095-3.848h0A3.32,3.32,0,0,1,68.945,12.2h0A3.32,3.32,0,0,0,71.356,9h0A3.32,3.32,0,0,1,74.982,5.7h0a3.32,3.32,0,0,0,3.4-2.106h0a3.32,3.32,0,0,1,4.575-1.772h0a3.32,3.32,0,0,0,3.933-.735h0A3.32,3.32,0,0,1,91.8,1.084Z" transform="translate(948.823 333.999)"/>
    <path id="Path_292" data-name="Path 292" class="cls-2" d="M259.981,25.32h0a3.32,3.32,0,0,0-.453-4.886h0a3.32,3.32,0,0,1-1.095-3.848,3.32,3.32,0,0,0-2.187-4.392h0A3.32,3.32,0,0,1,253.835,9h0A3.32,3.32,0,0,0,250.21,5.7a3.32,3.32,0,0,1-3.4-2.106,3.32,3.32,0,0,0-4.575-1.772h0a3.32,3.32,0,0,1-3.933-.735,3.32,3.32,0,0,0-4.906,0,3.315,3.315,0,0,1-.57.5,3.32,3.32,0,0,0,3.363.24h0a3.32,3.32,0,0,1,4.575,1.772,3.32,3.32,0,0,0,3.4,2.106A3.32,3.32,0,0,1,247.789,9h0a3.32,3.32,0,0,0,2.411,3.193h0a3.32,3.32,0,0,1,2.187,4.392,3.32,3.32,0,0,0,1.095,3.848h0a3.32,3.32,0,0,1,.453,4.886h0a3.32,3.32,0,0,0-.369,3.984,3.32,3.32,0,0,1-1.343,4.719h0a3.32,3.32,0,0,0-1.783,3.581,3.32,3.32,0,0,1-2.957,3.915h0a3.32,3.32,0,0,0-2.957,2.7h0a3.32,3.32,0,0,1-4.172,2.583,3.32,3.32,0,0,0-3.731,1.445,3.38,3.38,0,0,1-.2.284,3.31,3.31,0,0,1,1.421.618h0a3.32,3.32,0,0,0,4.823-.9A3.32,3.32,0,0,1,246.4,46.8a3.32,3.32,0,0,0,4.172-2.583h0a3.32,3.32,0,0,1,2.957-2.7h0a3.32,3.32,0,0,0,2.957-3.915,3.32,3.32,0,0,1,1.783-3.581h0a3.32,3.32,0,0,0,1.343-4.719A3.32,3.32,0,0,1,259.981,25.32Z" transform="translate(802.321 334)"/>
    <circle id="Ellipse_38" data-name="Ellipse 38" class="cls-3" cx="18.201" cy="18.201" r="18.201" transform="translate(1019.967 340.707)"/>
    <path id="Path_293" data-name="Path 293" class="cls-4" d="M235.846,51.421a18.313,18.313,0,0,0-3.023.251,18.2,18.2,0,0,1,0,35.9,18.2,18.2,0,1,0,3.023-36.149Z" transform="translate(802.322 289.286)"/>
    <g class="cls-6" transform="matrix(1, 0, 0, 1, 1013.17, 334)">
      <path id="Path_294-2" data-name="Path 294" class="cls-5" d="M189.645,108.5V108.5h0a.333.333,0,0,0-.272-.229l-7.682-1.116-3.435-6.961a.337.337,0,0,0-.6,0l-3.435,6.961-7.682,1.116-.011,0a.339.339,0,0,0-.039.009l-.015.006-.031.011-.011.006a.3.3,0,0,0-.03.017l0,0a.325.325,0,0,0-.033.025h0a.323.323,0,0,0-.031.031v0a.341.341,0,0,0-.064.116h0a.332.332,0,0,0,.085.345l5.559,5.418-1.312,7.651c0,.007,0,.014,0,.021s0,.02,0,.03,0,.008,0,.011a.314.314,0,0,0,0,.037l0,.008a.328.328,0,0,0,.007.038v0a.333.333,0,0,0,.035.081h0a.338.338,0,0,0,.056.069h0a.354.354,0,0,0,.034.028h0a.332.332,0,0,0,.354.025l6.871-3.612,6.871,3.612a.365.365,0,0,0,.047.02.333.333,0,0,0,.046.013h0a.317.317,0,0,0,.042.005h.051l.037-.006h.008a.341.341,0,0,0,.082-.031h0a.317.317,0,0,0,.031-.019l.007,0h0a.333.333,0,0,0,.134-.329L184,114.258h0l5.559-5.418h0a.338.338,0,0,0,.034-.038l.009-.013c.006-.009.013-.018.018-.028a.34.34,0,0,0,.019-.04v0a.32.32,0,0,0,.01-.034s0-.007,0-.011a.33.33,0,0,0,.006-.039s0,0,0-.006A.337.337,0,0,0,189.645,108.5Z" transform="translate(-152.95 -86.96)"/>
    </g>
  </g>
</svg>
