<svg xmlns="http://www.w3.org/2000/svg" xmlns:xlink="http://www.w3.org/1999/xlink" viewBox="0 0 50 49.816">
  <defs>
    <style>
      .cls-1 {
        fill: #d3dddf;
      }

      .cls-2 {
        fill: #bdd1da;
      }

      .cls-3 {
        fill: #fff;
      }

      .cls-4 {
        fill: #f5f5f5;
      }

      .cls-5 {
        fill: #2ad7ff;
        stroke: #fff;
      }

      .cls-6 {
        filter: url(#Path_311);
      }
    </style>
    <filter id="Path_311" x="12.361" y="14.5" width="24.371" height="22.109" filterUnits="userSpaceOnUse">
      <feOffset input="SourceAlpha"/>
      <feGaussianBlur stdDeviation="1" result="blur"/>
      <feFlood flood-opacity="0.122"/>
      <feComposite operator="in" in2="blur"/>
      <feComposite in="SourceGraphic"/>
    </filter>
  </defs>
  <g id="Group_358" data-name="Group 358" transform="translate(-1117 -334)">
    <path id="Path_291" data-name="Path 291" class="cls-1" d="M91.8,1.084h0a3.32,3.32,0,0,0,3.933.735h0a3.32,3.32,0,0,1,4.575,1.772h0a3.32,3.32,0,0,0,3.4,2.106h0A3.32,3.32,0,0,1,107.333,9h0a3.32,3.32,0,0,0,2.411,3.193h0a3.32,3.32,0,0,1,2.187,4.392h0a3.32,3.32,0,0,0,1.095,3.848h0a3.32,3.32,0,0,1,.453,4.885h0a3.32,3.32,0,0,0-.369,3.984h0a3.32,3.32,0,0,1-1.343,4.719h0a3.32,3.32,0,0,0-1.783,3.581h0a3.32,3.32,0,0,1-2.957,3.915h0a3.32,3.32,0,0,0-2.957,2.7h0A3.32,3.32,0,0,1,99.9,46.8h0a3.32,3.32,0,0,0-3.731,1.445h0a3.32,3.32,0,0,1-4.823.9h0a3.32,3.32,0,0,0-4,0h0a3.32,3.32,0,0,1-4.823-.9h0A3.32,3.32,0,0,0,78.791,46.8h0a3.32,3.32,0,0,1-4.172-2.583h0a3.32,3.32,0,0,0-2.957-2.7h0a3.32,3.32,0,0,1-2.957-3.915h0a3.32,3.32,0,0,0-1.783-3.581h0A3.32,3.32,0,0,1,65.58,29.3h0a3.32,3.32,0,0,0-.369-3.984h0a3.32,3.32,0,0,1,.453-4.885h0a3.32,3.32,0,0,0,1.095-3.848h0A3.32,3.32,0,0,1,68.945,12.2h0A3.32,3.32,0,0,0,71.356,9h0A3.32,3.32,0,0,1,74.982,5.7h0a3.32,3.32,0,0,0,3.4-2.106h0a3.32,3.32,0,0,1,4.575-1.772h0a3.32,3.32,0,0,0,3.933-.735h0A3.32,3.32,0,0,1,91.8,1.084Z" transform="translate(1052.655 333.999)"/>
    <path id="Path_292" data-name="Path 292" class="cls-2" d="M259.981,25.32h0a3.32,3.32,0,0,0-.453-4.886h0a3.32,3.32,0,0,1-1.095-3.848,3.32,3.32,0,0,0-2.187-4.392h0A3.32,3.32,0,0,1,253.835,9h0A3.32,3.32,0,0,0,250.21,5.7a3.32,3.32,0,0,1-3.4-2.106,3.32,3.32,0,0,0-4.575-1.772h0a3.32,3.32,0,0,1-3.933-.735,3.32,3.32,0,0,0-4.906,0,3.315,3.315,0,0,1-.57.5,3.32,3.32,0,0,0,3.363.24h0a3.32,3.32,0,0,1,4.575,1.772,3.32,3.32,0,0,0,3.4,2.106A3.32,3.32,0,0,1,247.789,9h0a3.32,3.32,0,0,0,2.411,3.193h0a3.32,3.32,0,0,1,2.187,4.392,3.32,3.32,0,0,0,1.095,3.848h0a3.32,3.32,0,0,1,.453,4.886h0a3.32,3.32,0,0,0-.369,3.984,3.32,3.32,0,0,1-1.343,4.719h0a3.32,3.32,0,0,0-1.783,3.581,3.32,3.32,0,0,1-2.957,3.915h0a3.32,3.32,0,0,0-2.957,2.7h0a3.32,3.32,0,0,1-4.172,2.583,3.32,3.32,0,0,0-3.731,1.445,3.38,3.38,0,0,1-.2.284,3.31,3.31,0,0,1,1.421.618h0a3.32,3.32,0,0,0,4.823-.9A3.32,3.32,0,0,1,246.4,46.8a3.32,3.32,0,0,0,4.172-2.583h0a3.32,3.32,0,0,1,2.957-2.7h0a3.32,3.32,0,0,0,2.957-3.915,3.32,3.32,0,0,1,1.783-3.581h0a3.32,3.32,0,0,0,1.343-4.719A3.32,3.32,0,0,1,259.981,25.32Z" transform="translate(906.153 334)"/>
    <circle id="Ellipse_38" data-name="Ellipse 38" class="cls-3" cx="18.201" cy="18.201" r="18.201" transform="translate(1123.799 341.172)"/>
    <path id="Path_293" data-name="Path 293" class="cls-4" d="M235.846,51.421a18.313,18.313,0,0,0-3.023.251,18.2,18.2,0,0,1,0,35.9,18.2,18.2,0,1,0,3.023-36.149Z" transform="translate(906.154 289.751)"/>
    <g id="noun_Diamond_984313" transform="translate(951.013 577.412)">
      <g id="Group_355" data-name="Group 355" transform="translate(176.987 -236.412)">
        <g class="cls-6" transform="matrix(1, 0, 0, 1, -11, -7)">
          <path id="Path_311-2" data-name="Path 311" class="cls-5" d="M22.094,15.256,18.77,11H8.323L5,15.256l8.548,10.559Z" transform="translate(11 7)"/>
        </g>
      </g>
    </g>
  </g>
</svg>
